<?xml version="1.0" encoding="UTF-8" standalone="no"?>
<svg
   height="48"
   viewBox="0 -960 960 960"
   width="48"
   version="1.1"
   id="svg4"
   xmlns="http://www.w3.org/2000/svg"
   xmlns:svg="http://www.w3.org/2000/svg">
  <defs
     id="defs8" />
  <g
     id="g1056">
    <path
       d="m 261,-750 h -60 v 570 c 0,16.5 5.875,30.625 17.625,42.375 C 230.375,-125.875 244.5,-120 261,-120 h 438 c 16,0 30,-6 42,-18 12,-12 18,-26 18,-42 v -570 h -60 c -481.14638,-68.33575 -481.14638,-68.33575 0,0 v 60 H 261 Z m 438,570 H 261 v -450 h 438 z"
       id="path2"
       style="fill-opacity:1;stroke:#000000;stroke-opacity:1" />
    <path
       style="color:#000000;stroke-linecap:round;stroke-linejoin:round;stroke-miterlimit:0;-inkscape-stroke:none;paint-order:markers fill stroke;stroke:none"
       d="m 400,-600 c -60.39592,0 -110,49.60408 -110,110 0,60.39592 49.60408,110 110,110 60.39592,0 110,-49.60408 110,-110 0,-60.39592 -49.60408,-110 -110,-110 z m 0,60 c 27.96955,0 50,22.03045 50,50 0,27.96955 -22.03045,50 -50,50 -27.96955,0 -50,-22.03045 -50,-50 0,-27.96955 22.03045,-50 50,-50 z"
       id="path1024" />
    <path
       style="color:#000000;stroke-linecap:round;stroke-linejoin:round;stroke-miterlimit:0;-inkscape-stroke:none;paint-order:markers fill stroke;stroke:none"
       d="m 570,-400 c -49.35024,0 -90,40.64976 -90,90 0,49.35024 40.64976,90 90,90 49.35024,0 90,-40.64976 90,-90 0,-49.35024 -40.64976,-90 -90,-90 z m 0,60 c 16.92386,0 30,13.07614 30,30 0,16.92386 -13.07614,30 -30,30 -16.92386,0 -30,-13.07614 -30,-30 0,-16.92386 13.07614,-30 30,-30 z"
       id="path1024-3" />
  </g>
</svg>
